<?xml version="1.0" standalone="no"?>
<!DOCTYPE svg PUBLIC "-//W3C//DTD SVG 20010904//EN"
 "http://www.w3.org/TR/2001/REC-SVG-20010904/DTD/svg10.dtd">
<svg version="1.0" xmlns="http://www.w3.org/2000/svg"
 width="260.000000pt" height="260.000000pt" viewBox="0 0 260.000000 260.000000"
 preserveAspectRatio="xMidYMid meet">
<metadata>
Created by potrace 1.11, written by Peter Selinger 2001-2013
</metadata>
<g transform="translate(0.000000,260.000000) scale(0.100000,-0.100000)"
fill="#000000" stroke="none">
<path d="M1320 2154 c-14 -2 -56 -9 -95 -15 -298 -48 -529 -207 -646 -444 -56
-114 -76 -195 -85 -345 -15 -263 67 -494 231 -655 79 -77 144 -119 263 -171
236 -102 606 -111 935 -23 l37 10 0 360 c0 326 -2 360 -17 366 -18 7 -391 -12
-400 -20 -3 -4 -3 -21 1 -40 6 -34 8 -35 62 -39 91 -8 89 1 92 -298 l3 -259
-27 -7 c-15 -4 -84 -4 -153 -1 -412 19 -667 244 -728 641 -40 265 24 523 167
666 67 67 123 101 226 137 70 24 94 27 214 27 186 1 282 -29 377 -117 48 -45
74 -88 92 -155 9 -33 16 -42 34 -42 49 0 50 5 39 190 -5 94 -14 176 -18 180
-22 22 -244 52 -409 55 -93 2 -181 2 -195 -1z"/>
</g>
</svg>
